<?xml version="1.0" encoding="utf-8"?>
<!-- Generator: Adobe Illustrator 23.0.6, SVG Export Plug-In . SVG Version: 6.00 Build 0)  -->
<svg version="1.1" id="Layer_1" xmlns="http://www.w3.org/2000/svg" xmlns:xlink="http://www.w3.org/1999/xlink" x="0px" y="0px"
	 viewBox="0 0 566.9 255.1" style="enable-background:new 0 0 566.9 255.1;" xml:space="preserve">
<g>
	<polygon points="206.1,187.9 198.8,187.9 192.5,195.8 192.5,179.7 187,181.2 187,207.9 192.5,207.9 192.5,198.5 200.2,207.9 
		207.4,207.9 197.8,196.9 	"/>
	<rect x="246.3" y="189.4" width="5.5" height="18.4"/>
	<polygon points="246.2,186.1 252,186.1 252,179.3 246.2,180.8 	"/>
	<path d="M309.1,190c0,0-3-2.3-6.9-2.3c-6.1,0-9.9,4.4-9.9,10.1c0,5.8,4,10.3,10,10.3c3.9,0,7-2.5,7-2.5c-0.1,0.3-0.1,1.9-0.1,2.3
		h5.5v-28.1l-5.5,1.3V190z M309.1,201c-0.1,0-2.8,2.2-6,2.2c-3.2,0-5.2-2.4-5.2-5.3s2.1-5.2,5.2-5.2c3.1,0,6,2.1,6,2.1V201z"/>
	<path d="M361.8,193.5c0-1.2,1.3-1.4,2.4-1.4c2.6,0,5.4,0.9,7.2,2.1v-4.6c-1.5-0.8-4-1.9-7.8-1.9c-4.7,0-7.6,2.7-7.6,6.1
		c0,7,10.4,5.8,10.4,8.6c0,1.2-1.4,1.3-2.4,1.3c-3.2,0-6-1-8.2-2.3v4.6c1.8,1.1,4.7,2.1,9.1,2.1c4.5,0,7.4-2.7,7.4-6.2
		C372.2,195.3,361.8,196.1,361.8,193.5z"/>
	<path d="M462.9,141.6c-10.1,8-30.8-1.1-30.8-1.1s15.4,18.4,39.5,10.2C463.2,148.8,462.3,142.1,462.9,141.6z"/>
	<path d="M475.9,129.8c-2.1,2.8-4.5,5.2-7.3,7.3c0.6,4.8,4.1,8.2,9.1,8.9c3.5-3,6.7-6.4,9.4-10.2C482.4,136.6,478,134.3,475.9,129.8
		z"/>
	<path d="M481.5,114.2c-0.5,3.6-1.4,7-2.8,10.2c2.5,4.2,7,6.1,11.8,4.7c2.2-4.8,3.6-9.9,4.2-15.2
		C490.8,117.2,485.7,117.3,481.5,114.2z"/>
	<path d="M478.5,97.4c1.4,3.3,2.4,6.9,2.8,10.7c4.2,2.8,9.3,2.5,13-1.1c-0.6-5.6-2-10.9-4.2-15.7C488.2,95.9,483.7,98.3,478.5,97.4z
		"/>
	<path d="M475.8,92.2c5.2,0.6,9.5-2.1,11.2-6.9c-3.9-5.5-8.8-10.1-14.5-13.7c1.5,5-0.5,9.8-5.2,12.3C470.5,86.2,473.4,89,475.8,92.2
		z"/>
	<path d="M412.5,108.6c1.9-16.3,10.7-24.6,24.7-29.3c8.7-2.9,18.2-1.5,23.6,0.7c4.7-1.9,7.3-7.6,4.9-12.7c0,0-4-1.5-5.6-2l0,0
		c-5.4-1.5-12.9-1.7-18.8-1c-29.1,3.6-46.9,26-44.3,52.4c0.8,8.6,3.9,16.6,8.6,23.3l0,0c9.5,13.6,29.6,20.9,47.1,19.4
		C430.2,155.8,409.2,136.8,412.5,108.6z"/>
	<polygon points="183.3,117.9 220.2,117.9 220.2,104.5 183.3,104.5 183.3,80.8 225,80.8 225,66.7 168.3,66.7 168.3,155.9 
		226.6,155.9 226.6,141.7 183.3,141.7 	"/>
	<polygon points="299.2,141.7 256,141.7 256,117.9 292.9,117.9 292.9,104.5 256,104.5 256,80.8 297.7,80.8 297.7,66.7 241,66.7 
		241,155.9 299.2,155.9 	"/>
	<path d="M153.7,112.1h-14.9l0,24.9c-5.7,3.7-12.8,5.5-21.3,5.5c-8.5,0-15.7-2.9-21.6-8.6c-6-5.7-8.9-13.4-8.9-22.9
		c0-9.5,3.1-17.1,9.2-23c6.1-5.8,13.7-8.7,22.7-8.7c4.7,0,8.8,0.6,12.3,1.7c3.5,1.1,7,3.2,10.5,6.2l8-11.5
		c-8.5-7.5-19.2-11.2-32-11.2c-12.9,0-23.8,4.4-32.9,13.3c-9.1,8.9-13.6,19.9-13.6,33.2c0,13.3,4.4,24.3,13.3,32.9
		c8.9,8.7,19.9,13,33.1,13c15.7,0,27.7-4.6,36.1-13.9v-30.9L153.7,112.1L153.7,112.1z"/>
	<path d="M387,112.2h-14.9l0,24.9c-5.7,3.7-12.8,5.5-21.3,5.5c-8.5,0-15.7-2.9-21.6-8.6c-6-5.7-8.9-13.4-8.9-22.9
		c0-9.5,3.1-17.1,9.2-23c6.1-5.8,13.7-8.7,22.7-8.7c4.7,0,8.8,0.6,12.3,1.7c3.5,1.1,7,3.2,10.5,6.2l8-11.5
		c-8.5-7.5-19.2-11.2-32-11.2c-12.9,0-23.8,4.4-32.9,13.3c-9.1,8.9-13.6,19.9-13.6,33.2c0,13.3,4.4,24.3,13.3,32.9
		c8.9,8.7,19.9,13,33.1,13c15.7,0,27.7-4.6,36.1-13.9v-30.9L387,112.2L387,112.2z"/>
</g>
</svg>
